<mxfile host="app.diagrams.net" modified="2020-12-19T08:46:27.879Z" agent="5.0 (Windows NT 10.0; Win64; x64) AppleWebKit/537.36 (KHTML, like Gecko) Chrome/87.0.4280.88 Safari/537.36" etag="qM9EDxMtbZn66SVg8U0q" version="14.1.1" type="github">
  <diagram id="Xaw3y7m2BAXYYJtlHXCn" name="Page-1">
    <mxGraphModel dx="868" dy="482" grid="1" gridSize="10" guides="1" tooltips="1" connect="1" arrows="1" fold="1" page="1" pageScale="1" pageWidth="1169" pageHeight="827" math="0" shadow="0">
      <root>
        <mxCell id="0" />
        <mxCell id="1" parent="0" />
        <mxCell id="1ENP_768lPTiWEfWRTLd-1" value="Virtual Entity:&lt;br style=&quot;font-size: 11px&quot;&gt;Control unit" style="rounded=0;whiteSpace=wrap;html=1;fontStyle=2;fillColor=#d5e8d4;strokeColor=#82b366;fontSize=11;" parent="1" vertex="1">
          <mxGeometry x="220" y="40" width="140" height="40" as="geometry" />
        </mxCell>
        <mxCell id="1ENP_768lPTiWEfWRTLd-2" value="EntityType: Control unit&lt;br style=&quot;font-size: 11px&quot;&gt;ID: Ballot1" style="rounded=0;whiteSpace=wrap;html=1;fontStyle=2;fillColor=#d5e8d4;strokeColor=#82b366;fontSize=11;" parent="1" vertex="1">
          <mxGeometry x="220" y="80" width="140" height="40" as="geometry" />
        </mxCell>
        <mxCell id="1ENP_768lPTiWEfWRTLd-3" value="Virtual Entity:&lt;br style=&quot;font-size: 11px&quot;&gt;Ballot unit" style="rounded=0;whiteSpace=wrap;html=1;fontStyle=2;fillColor=#d5e8d4;strokeColor=#82b366;fontSize=11;" parent="1" vertex="1">
          <mxGeometry x="710" y="40" width="140" height="40" as="geometry" />
        </mxCell>
        <mxCell id="1ENP_768lPTiWEfWRTLd-4" value="EntityType: Ballot&lt;br style=&quot;font-size: 11px&quot;&gt;ID: ballot1&lt;br style=&quot;font-size: 11px&quot;&gt;ControlID: Ballot1" style="rounded=0;whiteSpace=wrap;html=1;fontStyle=2;fillColor=#d5e8d4;strokeColor=#82b366;fontSize=11;" parent="1" vertex="1">
          <mxGeometry x="710" y="80" width="140" height="40" as="geometry" />
        </mxCell>
        <mxCell id="1ENP_768lPTiWEfWRTLd-25" style="edgeStyle=orthogonalEdgeStyle;rounded=0;orthogonalLoop=1;jettySize=auto;html=1;exitX=0.5;exitY=0;exitDx=0;exitDy=0;entryX=0.5;entryY=1;entryDx=0;entryDy=0;endArrow=diamond;endFill=1;" parent="1" source="1ENP_768lPTiWEfWRTLd-7" target="1ENP_768lPTiWEfWRTLd-2" edge="1">
          <mxGeometry relative="1" as="geometry" />
        </mxCell>
        <mxCell id="1ENP_768lPTiWEfWRTLd-7" value="Attribute: Button" style="rounded=0;whiteSpace=wrap;html=1;fontStyle=2;fillColor=#fff2cc;strokeColor=#d6b656;fontSize=11;" parent="1" vertex="1">
          <mxGeometry x="220" y="200" width="140" height="40" as="geometry" />
        </mxCell>
        <mxCell id="1ENP_768lPTiWEfWRTLd-29" style="edgeStyle=orthogonalEdgeStyle;rounded=0;orthogonalLoop=1;jettySize=auto;html=1;exitX=0.5;exitY=1;exitDx=0;exitDy=0;entryX=0.5;entryY=0;entryDx=0;entryDy=0;endArrow=open;endFill=0;" parent="1" source="1ENP_768lPTiWEfWRTLd-8" target="1ENP_768lPTiWEfWRTLd-15" edge="1">
          <mxGeometry relative="1" as="geometry" />
        </mxCell>
        <mxCell id="1ENP_768lPTiWEfWRTLd-30" style="edgeStyle=orthogonalEdgeStyle;rounded=0;orthogonalLoop=1;jettySize=auto;html=1;exitX=0.5;exitY=1;exitDx=0;exitDy=0;entryX=0.5;entryY=0;entryDx=0;entryDy=0;endArrow=open;endFill=0;" parent="1" source="1ENP_768lPTiWEfWRTLd-8" target="1ENP_768lPTiWEfWRTLd-16" edge="1">
          <mxGeometry relative="1" as="geometry" />
        </mxCell>
        <mxCell id="1ENP_768lPTiWEfWRTLd-8" value="AttributeName: button1&lt;br style=&quot;font-size: 11px&quot;&gt;AttributeType: button" style="rounded=0;whiteSpace=wrap;html=1;fontStyle=2;fillColor=#fff2cc;strokeColor=#d6b656;fontSize=11;" parent="1" vertex="1">
          <mxGeometry x="220" y="230" width="140" height="40" as="geometry" />
        </mxCell>
        <mxCell id="1ENP_768lPTiWEfWRTLd-28" style="edgeStyle=orthogonalEdgeStyle;rounded=0;orthogonalLoop=1;jettySize=auto;html=1;exitX=0.5;exitY=0;exitDx=0;exitDy=0;endArrow=diamond;endFill=1;" parent="1" source="1ENP_768lPTiWEfWRTLd-13" edge="1">
          <mxGeometry relative="1" as="geometry">
            <mxPoint x="779.9999999999998" y="120" as="targetPoint" />
          </mxGeometry>
        </mxCell>
        <mxCell id="1ENP_768lPTiWEfWRTLd-13" value="Attribute: VoteButton" style="rounded=0;whiteSpace=wrap;html=1;fontStyle=2;fillColor=#fff2cc;strokeColor=#d6b656;fontSize=11;" parent="1" vertex="1">
          <mxGeometry x="710" y="200" width="140" height="40" as="geometry" />
        </mxCell>
        <mxCell id="1ENP_768lPTiWEfWRTLd-36" style="edgeStyle=orthogonalEdgeStyle;rounded=0;orthogonalLoop=1;jettySize=auto;html=1;exitX=0.5;exitY=1;exitDx=0;exitDy=0;entryX=0.5;entryY=0;entryDx=0;entryDy=0;endArrow=open;endFill=0;" parent="1" source="1ENP_768lPTiWEfWRTLd-14" target="1ENP_768lPTiWEfWRTLd-22" edge="1">
          <mxGeometry relative="1" as="geometry" />
        </mxCell>
        <mxCell id="1ENP_768lPTiWEfWRTLd-37" style="edgeStyle=orthogonalEdgeStyle;rounded=0;orthogonalLoop=1;jettySize=auto;html=1;exitX=0.5;exitY=1;exitDx=0;exitDy=0;entryX=0.5;entryY=0;entryDx=0;entryDy=0;endArrow=open;endFill=0;" parent="1" source="1ENP_768lPTiWEfWRTLd-14" target="1ENP_768lPTiWEfWRTLd-23" edge="1">
          <mxGeometry relative="1" as="geometry" />
        </mxCell>
        <mxCell id="1ENP_768lPTiWEfWRTLd-14" value="AttributeName: voteButton&lt;br style=&quot;font-size: 11px&quot;&gt;AttributeType: button" style="rounded=0;whiteSpace=wrap;html=1;fontStyle=2;fillColor=#fff2cc;strokeColor=#d6b656;fontSize=11;" parent="1" vertex="1">
          <mxGeometry x="710" y="240" width="140" height="40" as="geometry" />
        </mxCell>
        <mxCell id="1ENP_768lPTiWEfWRTLd-15" value="Button: on" style="rounded=0;whiteSpace=wrap;html=1;fontStyle=2;fillColor=#f5f5f5;strokeColor=#666666;fontColor=#333333;fontSize=11;" parent="1" vertex="1">
          <mxGeometry x="160" y="360" width="80" height="40" as="geometry" />
        </mxCell>
        <mxCell id="1ENP_768lPTiWEfWRTLd-16" value="Button: off" style="rounded=0;whiteSpace=wrap;html=1;fontStyle=2;fillColor=#f5f5f5;strokeColor=#666666;fontColor=#333333;fontSize=11;" parent="1" vertex="1">
          <mxGeometry x="320" y="360" width="80" height="40" as="geometry" />
        </mxCell>
        <mxCell id="1ENP_768lPTiWEfWRTLd-22" value="VoteButton: on" style="rounded=0;whiteSpace=wrap;html=1;fontStyle=2;fillColor=#f5f5f5;strokeColor=#666666;fontColor=#333333;fontSize=11;" parent="1" vertex="1">
          <mxGeometry x="640" y="360" width="80" height="40" as="geometry" />
        </mxCell>
        <mxCell id="1ENP_768lPTiWEfWRTLd-23" value="VoteButton: off" style="rounded=0;whiteSpace=wrap;html=1;fontStyle=2;fillColor=#f5f5f5;strokeColor=#666666;fontColor=#333333;fontSize=11;" parent="1" vertex="1">
          <mxGeometry x="840" y="360" width="80" height="40" as="geometry" />
        </mxCell>
        <mxCell id="qJ6__09m4k8QNK2Wmyha-1" value="in ballot unit" style="text;html=1;resizable=0;autosize=1;align=center;verticalAlign=middle;points=[];fillColor=none;strokeColor=none;rounded=0;" vertex="1" parent="1">
          <mxGeometry x="480" y="50" width="80" height="20" as="geometry" />
        </mxCell>
        <mxCell id="qJ6__09m4k8QNK2Wmyha-2" value="" style="endArrow=classic;html=1;exitX=1;exitY=0;exitDx=0;exitDy=0;entryX=0;entryY=0;entryDx=0;entryDy=0;" edge="1" parent="1" source="1ENP_768lPTiWEfWRTLd-2" target="1ENP_768lPTiWEfWRTLd-4">
          <mxGeometry width="50" height="50" relative="1" as="geometry">
            <mxPoint x="520" y="290" as="sourcePoint" />
            <mxPoint x="570" y="240" as="targetPoint" />
          </mxGeometry>
        </mxCell>
        <mxCell id="qJ6__09m4k8QNK2Wmyha-3" value="has button" style="text;html=1;resizable=0;autosize=1;align=center;verticalAlign=middle;points=[];fillColor=none;strokeColor=none;rounded=0;" vertex="1" parent="1">
          <mxGeometry x="185" y="290" width="70" height="20" as="geometry" />
        </mxCell>
        <mxCell id="qJ6__09m4k8QNK2Wmyha-4" value="has button" style="text;html=1;resizable=0;autosize=1;align=center;verticalAlign=middle;points=[];fillColor=none;strokeColor=none;rounded=0;" vertex="1" parent="1">
          <mxGeometry x="295" y="290" width="70" height="20" as="geometry" />
        </mxCell>
        <mxCell id="qJ6__09m4k8QNK2Wmyha-5" value="has button" style="text;html=1;resizable=0;autosize=1;align=center;verticalAlign=middle;points=[];fillColor=none;strokeColor=none;rounded=0;" vertex="1" parent="1">
          <mxGeometry x="665" y="300" width="70" height="20" as="geometry" />
        </mxCell>
        <mxCell id="qJ6__09m4k8QNK2Wmyha-6" value="has button" style="text;html=1;resizable=0;autosize=1;align=center;verticalAlign=middle;points=[];fillColor=none;strokeColor=none;rounded=0;" vertex="1" parent="1">
          <mxGeometry x="785" y="300" width="70" height="20" as="geometry" />
        </mxCell>
      </root>
    </mxGraphModel>
  </diagram>
</mxfile>
